<svg width="286" height="91" viewBox="0 0 286 91" fill="none" xmlns="http://www.w3.org/2000/svg">
<path d="M54.84 80.52L27.6 44.76L54.48 15.84C56.52 13.2 56.04 9.48 53.4 7.56C50.76 5.52 47.04 5.99999 45.12 8.64L11.88 44.16V11.64C11.88 8.28 9.24 5.64 5.88 5.64C2.64 5.64 0 8.28 0 11.64V84.24C0 87.6 2.64 90.24 5.88 90.24C9.24 90.24 11.88 87.6 11.88 84.24V61.2L19.32 53.4L45.72 88.08C46.92 89.52 48.6 90.24 50.28 90.24C51.6 90.24 52.92 89.76 54 88.92C56.64 86.76 57 83.04 54.84 80.52Z" fill="#14BDEB"/>
<path d="M82.5 90C85.74 90 88.38 87.36 88.38 84V35.64C88.38 32.4 85.74 29.76 82.5 29.76C79.14 29.76 76.5 32.4 76.5 35.64V84C76.5 87.36 79.14 90 82.5 90ZM82.5 17.76C84.06 17.76 85.62 17.16 86.7 16.08C87.78 15 88.38 13.44 88.38 11.88C88.38 10.32 87.78 8.75999 86.7 7.67999C85.62 6.6 84.06 5.88 82.5 5.88C80.94 5.88 79.38 6.6 78.3 7.67999C77.22 8.75999 76.5 10.32 76.5 11.88C76.5 13.44 77.22 15 78.3 16.08C79.38 17.16 80.94 17.76 82.5 17.76Z" fill="#14BDEB"/>
<path d="M225.803 79.92L204.963 53.64L224.963 39.84C227.483 37.8 227.843 33.96 225.803 31.44C223.643 28.92 219.923 28.68 217.403 30.72L192.163 48.6V5.88C192.163 2.63999 189.403 0 186.163 0C182.923 0 180.283 2.63999 180.283 5.88V83.64C180.283 87 182.923 89.64 186.163 89.64C189.403 89.64 192.163 87 192.163 83.64V62.64L194.883 60.12L216.683 87.48C217.763 88.92 219.443 89.64 221.243 89.64C222.563 89.64 223.883 89.16 224.963 88.2C227.483 86.16 227.843 82.44 225.803 79.92Z" fill="#14BDEB"/>
<path d="M278.924 29.76C275.564 29.76 272.924 32.4 272.924 35.64V65.64C272.924 72.48 268.404 78.12 261.444 78.12C254.604 78.12 250.084 72.48 250.084 65.64V35.64C250.084 32.4 247.444 29.76 244.084 29.76C240.844 29.76 238.204 32.4 238.204 35.64V65.88C238.324 79.2 248.124 90 261.444 90C274.884 90 284.684 79.2 284.804 65.88V35.64C284.804 32.4 282.164 29.76 278.924 29.76Z" fill="#14BDEB"/>
<path d="M72.5 41.64C74.06 41.64 88.38 41.64 88.38 41.64C88.38 41.64 88.38 37.2 88.38 35.64C88.38 34.08 83.58 30.84 82.5 29.76C82.5 29.76 74.06 29.76 72.5 29.76C70.94 29.76 69.38 30.48 68.3 31.56C67.22 32.64 66.5 34.2 66.5 35.76C66.5 37.32 67.22 38.88 68.3 39.96C69.38 41.04 70.94 41.64 72.5 41.64Z" fill="#14BDEB"/>
<circle cx="120.1" cy="39.0466" r="6" fill="#FF9B42"/>
<circle cx="151.1" cy="39.0466" r="6" fill="#FF9B42"/>
<path d="M109.8 62.88C109.8 62.88 115.122 83.88 135.711 83.88C156.3 83.88 160.8 62.88 160.8 62.88" stroke="#FF9B42" stroke-width="12" stroke-linecap="round"/>
</svg>
