<?xml version="1.0" encoding="iso-8859-1"?>
<!-- Generator: Adobe Illustrator 19.0.0, SVG Export Plug-In . SVG Version: 6.00 Build 0)  -->
<svg version="1.1" id="Capa_1" xmlns="http://www.w3.org/2000/svg" xmlns:xlink="http://www.w3.org/1999/xlink" x="0px" y="0px"
	 viewBox="0 0 456.62 456.62" style="enable-background:new 0 0 456.62 456.62;" xml:space="preserve">
<path style="fill:#4DCFE0;" d="M451.918,111.968l-51.722-51.722L389.224,71.74l-80.457,79.935l-10.449,10.449l51.722,51.2
	c3.135,3.135,6.792,4.702,10.971,4.702s7.837-1.567,10.971-4.702l79.935-79.412c3.135-3.135,4.702-6.792,4.702-10.971
	C456.62,118.76,455.053,114.581,451.918,111.968z"/>
<path style="fill:#3A2C51;" d="M389.224,74.352l10.971-11.494l19.853-19.853c6.269-6.792,6.269-16.718,0-22.465
	c-6.269-6.269-16.196-5.747-21.943,0l-30.824,31.347l-80.457,79.935L176.065,242.058c-18.808-14.106-41.796-21.943-65.829-21.943
	C49.633,220.115,0,269.748,0,330.352s49.633,110.237,110.237,110.237s110.237-49.633,110.237-110.237
	c0-24.033-7.837-47.02-21.943-65.829l99.788-99.788l10.449-10.449L389.224,74.352z M110.237,409.242
	c-43.363,0-78.89-35.527-78.89-78.89s35.527-78.89,78.89-78.89c20.898,0,40.751,8.359,55.902,22.988
	c15.151,15.151,22.988,34.482,22.988,55.902C189.127,373.715,153.6,409.242,110.237,409.242z"/>
<g>
</g>
<g>
</g>
<g>
</g>
<g>
</g>
<g>
</g>
<g>
</g>
<g>
</g>
<g>
</g>
<g>
</g>
<g>
</g>
<g>
</g>
<g>
</g>
<g>
</g>
<g>
</g>
<g>
</g>
</svg>
